<?xml version="1.0" encoding="utf-8"?>
<!-- Generator: Adobe Illustrator 28.3.0, SVG Export Plug-In . SVG Version: 6.00 Build 0)  -->
<svg version="1.1" id="Calque_1" xmlns="http://www.w3.org/2000/svg" xmlns:xlink="http://www.w3.org/1999/xlink" x="0px" y="0px"
	 viewBox="0 0 136.14 198.09" style="enable-background:new 0 0 136.14 198.09;" xml:space="preserve">
<style type="text/css">
	.st0{fill:#1D71B8;stroke:#000000;stroke-miterlimit:10;}
	.st1{fill:#FBCB9A;stroke:#000000;stroke-miterlimit:10;}
	.st2{fill:#FFFFFF;stroke:#000000;stroke-width:0.75;stroke-miterlimit:10;}
	.st3{fill:#E52421;stroke:#000000;stroke-width:0.75;stroke-miterlimit:10;}
	.st4{fill:none;stroke:#000000;stroke-miterlimit:10;}
</style>
<g>
	<path class="st0" d="M81,199.2H56.49c-6.6,0-12-5.4-12-12v-71.49c0-6.6,5.4-12,12-12H81c6.6,0,12,5.4,12,12v71.49
		C93,193.8,87.6,199.2,81,199.2z"/>
	<circle class="st1" cx="68.74" cy="81.8" r="29.83"/>
	<ellipse class="st2" cx="57.62" cy="73.67" rx="10.74" ry="15.23"/>
	<ellipse class="st2" cx="79.86" cy="73.67" rx="10.74" ry="15.23"/>
	<ellipse cx="61.01" cy="67.21" rx="5.37" ry="7.62"/>
	<ellipse cx="76.68" cy="67.21" rx="5.37" ry="7.62"/>
	<path class="st3" d="M60.13,90.56H86.1c0,0-1.41,0.85-8.32,8.34c-4.27,4.63-10.81,4.07-14.98,2.21c-2.31-1.03-6.14-3.35-6.81-5.79
		c-0.53-1.95-1.72-5.19-4.34-5.19C46.89,90.13,60.13,90.56,60.13,90.56z"/>
	<path class="st0" d="M44.49,138.98c0,0-45.7-12-43.4-45.7s15.06-64.09,15.06-64.09l19.4,4.34c0,0-19.4,57.97-14.04,68.95
		s22.98,19.9,22.98,19.9V138.98z"/>
	<path class="st1" d="M16.15,29.19c0,0-10.21-12.77-3.57-17.87s6.64,14.04,6.64,14.04s1.53-27.57,6.13-18.38s3.57,18.64,3.57,18.64
		S30.7-8.77,35.04,5.1s1.79,21.79,1.79,21.79S42.38-7.32,46.88,4.43S43.7,26.68,43.7,26.68s2.07-6.93,8.96-2.85
		s-17.11,9.7-17.11,9.7L16.15,29.19z"/>
	<path class="st0" d="M92.98,138.98c0,0,45.7-12,43.4-45.7c-2.3-33.7-15.06-64.09-15.06-64.09l-19.4,4.34
		c0,0,19.4,57.97,14.04,68.95s-22.98,19.9-22.98,19.9V138.98z"/>
	<path class="st1" d="M121.32,29.19c0,0,10.21-12.77,3.57-17.87c-6.64-5.11-6.64,14.04-6.64,14.04s-1.53-27.57-6.13-18.38
		c-4.6,9.19-3.57,18.64-3.57,18.64s-1.79-34.39-6.13-20.51c-4.34,13.88-1.79,21.79-1.79,21.79S95.08-7.32,90.58,4.43
		c-4.5,11.74,3.19,22.25,3.19,22.25s-2.07-6.93-8.96-2.85c-6.89,4.09,17.11,9.7,17.11,9.7L121.32,29.19z"/>
	<rect x="51.38" y="36.09" class="st0" width="33.96" height="19.91"/>
	<line class="st4" x1="85.34" y1="56" x2="112.4" y2="56"/>
</g>
</svg>
