<?xml version="1.0" encoding="utf-8"?>
<!-- Generator: Adobe Illustrator 28.3.0, SVG Export Plug-In . SVG Version: 6.00 Build 0)  -->
<svg version="1.1" id="Calque_1" xmlns="http://www.w3.org/2000/svg" xmlns:xlink="http://www.w3.org/1999/xlink" x="0px" y="0px"
	 viewBox="0 0 88.79 160.51" style="enable-background:new 0 0 88.79 160.51;" xml:space="preserve">
<style type="text/css">
	.st0{fill:#F39200;stroke:#000000;stroke-miterlimit:10;}
	.st1{fill:#FBCB9A;stroke:#000000;stroke-miterlimit:10;}
	.st2{fill:#683C11;stroke:#000000;stroke-miterlimit:10;}
	.st3{fill:#FFFFFF;stroke:#000000;stroke-width:0.75;stroke-miterlimit:10;}
</style>
<g>
	<path class="st0" d="M55.43,160.51H30.91c-6.6,0-12-5.4-12-12V77.02c0-6.6,5.4-12,12-12h24.51c6.6,0,12,5.4,12,12v71.49
		C67.43,155.11,62.03,160.51,55.43,160.51z"/>
	<circle class="st1" cx="43.17" cy="43.11" r="29.83"/>
	<polygon class="st2" points="23.12,26.52 33.87,21.79 48.17,28.94 63.39,24.17 83.57,40.51 87.66,25.36 77.79,31.49 69.96,11.4 
		56.85,8.17 46.13,0 37.11,5.79 19.91,15.66 13.34,3.91 0,16.34 3.57,24.51 8.85,38.98 12.43,29.11 21.96,26.52 	"/>
	<ellipse class="st3" cx="32.05" cy="34.98" rx="10.74" ry="15.23"/>
	<ellipse class="st3" cx="54.29" cy="34.98" rx="10.74" ry="15.23"/>
	<ellipse cx="35.97" cy="34.14" rx="5.37" ry="7.62"/>
	<ellipse cx="58.02" cy="34.14" rx="5.37" ry="7.62"/>
</g>
</svg>
