<?xml version="1.0" encoding="utf-8"?>
<!-- Generator: Adobe Illustrator 28.3.0, SVG Export Plug-In . SVG Version: 6.00 Build 0)  -->
<svg version="1.1" id="Calque_1" xmlns="http://www.w3.org/2000/svg" xmlns:xlink="http://www.w3.org/1999/xlink" x="0px" y="0px"
	 viewBox="0 0 145.53 97.32" style="enable-background:new 0 0 145.53 97.32;" xml:space="preserve">
<style type="text/css">
	.st0{fill:#F39200;stroke:#000000;stroke-miterlimit:10;}
	.st1{fill:#FBCB9A;stroke:#000000;stroke-miterlimit:10;}
	.st2{fill:none;stroke:#000000;stroke-miterlimit:10;}
</style>
<g>
	<rect x="1" y="55.17" class="st0" width="57.87" height="34.47"/>
	<path class="st1" d="M58.88,55.17h13.77c0,0,5.79-13.96,11.23-16.68s13.28-14.3,13.28-14.3s2.72-25.53,9.53-23.15
		c4.59,1.61,8.25,11.72,10.15,18.14c0.95,3.22,0.99,6.63,0.08,9.85c-1.29,4.59-2.93,11.25-2.06,12.94
		c0.75,1.45,8.34,0.57,15.05-0.52c6-0.97,11.7,3.01,12.81,8.98c2.64,14.17,5.63,37.8-2.33,43.88c-11.57,8.85-81.51-4.68-81.51-4.68
		V55.17z"/>
	<path class="st2" d="M137.86,43.15c0,0-15-5.65-21.1,2.44c-6.1,8.1,10.16,11.75,10.16,11.75s-11.95-4.28-10.92,6.36
		c1.03,10.64,8.38,6.15,8.38,6.15s-18.33-9.6-8.4,6.99s11.22,1.83,11.22,1.83s-19.59-4.08-17.09,8.78
		c2.49,12.86,29.66,7.28,29.66,7.28"/>
</g>
</svg>
