<?xml version="1.0" encoding="utf-8"?>
<!-- Generator: Adobe Illustrator 28.3.0, SVG Export Plug-In . SVG Version: 6.00 Build 0)  -->
<svg version="1.1" id="Calque_1" xmlns="http://www.w3.org/2000/svg" xmlns:xlink="http://www.w3.org/1999/xlink" x="0px" y="0px"
	 viewBox="0 0 145.53 97.32" style="enable-background:new 0 0 145.53 97.32;" xml:space="preserve">
<style type="text/css">
	.st0{fill:#FBCB9A;stroke:#000000;stroke-miterlimit:10;}
	.st1{fill:#F39200;stroke:#000000;stroke-miterlimit:10;}
	.st2{fill:none;stroke:#000000;stroke-miterlimit:10;}
</style>
<g>
	<path class="st0" d="M58.37,42.59h13.77c0,0,5.79,13.96,11.23,16.68s13.28,14.3,13.28,14.3s2.72,25.53,9.53,23.15
		c4.59-1.61,8.25-11.72,10.15-18.14c0.95-3.22,0.99-6.63,0.08-9.85c-1.29-4.59-2.93-11.25-2.06-12.94
		c0.75-1.45,8.34-0.57,15.05,0.52c6,0.97,11.7-3.01,12.81-8.98c2.64-14.17,5.63-37.8-2.33-43.88c-11.57-8.85-81.51,4.68-81.51,4.68
		V42.59z"/>
	<rect x="0.5" y="7.85" class="st1" width="57.87" height="34.47"/>
	<polyline class="st2" points="68.46,14.4 80.8,20.78 79.19,7.85 	"/>
	<polyline class="st2" points="85.74,8.44 84.12,20.78 95.53,19.68 	"/>
	<polyline class="st2" points="71.67,26.73 82.35,23.38 86.8,32.86 	"/>
</g>
</svg>
