<?xml version="1.0" encoding="utf-8"?>
<!-- Generator: Adobe Illustrator 28.3.0, SVG Export Plug-In . SVG Version: 6.00 Build 0)  -->
<svg version="1.1" id="Calque_1" xmlns="http://www.w3.org/2000/svg" xmlns:xlink="http://www.w3.org/1999/xlink" x="0px" y="0px"
	 viewBox="0 0 57.04 52.85" style="enable-background:new 0 0 57.04 52.85;" xml:space="preserve">
<style type="text/css">
	.st0{fill:none;stroke:#000000;stroke-width:2;stroke-miterlimit:10;}
	.st1{fill:#C6C6C6;stroke:#000000;stroke-width:0.5;stroke-miterlimit:10;}
	.st2{fill:#FDEA9D;stroke:#000000;stroke-width:0.75;stroke-miterlimit:10;}
	.st3{fill:#FFED00;}
	.st4{fill:#FFFFFF;stroke:#000000;stroke-width:0.75;stroke-miterlimit:10;}
</style>
<g>
	<polyline class="st0" points="37.02,42.77 37.02,51.7 46.72,51.7 	"/>
	<polyline class="st0" points="22.85,42.77 22.85,51.7 32.55,51.7 	"/>
	<rect x="1.4" y="25.15" class="st1" width="7.32" height="2.3"/>
	<rect x="1.4" y="30.51" class="st1" width="7.32" height="2.3"/>
	<path d="M1.12,34.68H1.1c-0.61,0-1.1-0.49-1.1-1.1V24.2c0-0.61,0.49-1.1,1.1-1.1h0.02c0.61,0,1.1,0.49,1.1,1.1v9.38
		C2.21,34.19,1.72,34.68,1.12,34.68z"/>
	<path class="st2" d="M51.45,44.98H12.81c-2.82,0-5.11-2.29-5.11-5.11V19.45c0-2.82,2.29-5.11,5.11-5.11h38.64
		c2.82,0,5.11,2.29,5.11,5.11v20.43C56.55,42.69,54.27,44.98,51.45,44.98z"/>
	<rect x="15.36" y="14.68" class="st3" width="8.51" height="29.94"/>
	<rect x="40.64" y="14.68" class="st3" width="8.51" height="29.94"/>
	<ellipse class="st4" cx="26.13" cy="9.4" rx="6" ry="8.51"/>
	<ellipse class="st4" cx="38.55" cy="9.4" rx="6" ry="8.51"/>
	<ellipse cx="28.32" cy="8.94" rx="3" ry="4.26"/>
	<ellipse cx="40.64" cy="8.94" rx="3" ry="4.26"/>
</g>
</svg>
